<svg xmlns="http://www.w3.org/2000/svg" width="40.621" height="50.156" viewBox="0 0 40.621 50.156">
  <g id="Group_47" data-name="Group 47" transform="translate(-492.594 1337.934)">
    <g id="Group_29" data-name="Group 29" transform="translate(59.047)">
      <path id="Union_6" data-name="Union 6" d="M15.918,47.545a92.308,92.308,0,0,1-7.664-8.934A57.354,57.354,0,0,1,2.817,30.02,22.967,22.967,0,0,1,0,19.81,19.819,19.819,0,0,1,33.825,5.8a19.686,19.686,0,0,1,5.8,14.014A22.955,22.955,0,0,1,36.8,30.02a57.209,57.209,0,0,1-5.437,8.591A92.163,92.163,0,0,1,23.7,47.545a5.507,5.507,0,0,1-7.784,0Z" transform="translate(434.047 -1337.434)" fill="#383f48" stroke="rgba(0,0,0,0)" stroke-miterlimit="10" stroke-width="1"/>
    </g>
    <g id="Bar_icon" data-name="Bar icon" transform="translate(477.963 -1404.868)">
      <g id="Group_40" data-name="Group 40" transform="translate(22.706 75)">
        <g id="Group_31" data-name="Group 31" transform="translate(0 4.719)">
          <g id="Group_30" data-name="Group 30">
            <path id="Path_35" data-name="Path 35" d="M141.942,226.114q-.99,1.136-1.977,2.268-1.075,1.234-2.146,2.466l-1.383,1.589q-1.446,1.661-2.891,3.32c-.613.707-1.245,1.4-1.846,2.118-.009.013-.019.022-.028.034H133c-.516-.591-1.033-1.186-1.549-1.777q-1.446-1.661-2.891-3.32c-.563-.648-1.126-1.292-1.69-1.94q-.906-1.037-1.809-2.078-1.145-1.314-2.293-2.631c-.013-.016-.028-.031-.041-.047-.222.535-.441,1.067-.663,1.6h18.013c.832,0,1.665.013,2.494,0h.038a.939.939,0,1,0,0-1.877H124.592c-.832,0-1.665-.019-2.494,0h-.038a.94.94,0,0,0-.857.576.958.958,0,0,0,.194,1.026q.99,1.136,1.977,2.268,1.075,1.234,2.146,2.466c.46.529.923,1.058,1.383,1.589q1.446,1.661,2.891,3.32c.613.707,1.214,1.427,1.846,2.118a.333.333,0,0,1,.028.034.944.944,0,0,0,1.327,0c.516-.591,1.033-1.186,1.549-1.777q1.446-1.661,2.891-3.32c.563-.648,1.126-1.292,1.69-1.94q.906-1.037,1.809-2.078,1.145-1.314,2.293-2.631c.013-.016.028-.031.041-.047a1,1,0,0,0,.275-.663.957.957,0,0,0-.275-.663A.941.941,0,0,0,141.942,226.114Z" transform="translate(-121.129 -225.833)" fill="#fff"/>
          </g>
        </g>
        <g id="Group_33" data-name="Group 33" transform="translate(10.265 16.517)">
          <g id="Group_32" data-name="Group 32">
            <path id="Path_36" data-name="Path 36" d="M451.077,612.764v-8.949a.939.939,0,0,0-1.877,0v8.949a.939.939,0,0,0,1.877,0Z" transform="translate(-449.2 -602.876)" fill="#fff"/>
          </g>
        </g>
        <g id="Group_35" data-name="Group 35" transform="translate(5.662 25.466)">
          <g id="Group_34" data-name="Group 34">
            <path id="Path_37" data-name="Path 37" d="M303.016,890.777h9.205a.939.939,0,1,0,0-1.877h-9.205a.939.939,0,0,0,0,1.877Z" transform="translate(-302.076 -888.9)" fill="#fff"/>
          </g>
        </g>
        <g id="Group_37" data-name="Group 37" transform="translate(12.346 0)">
          <g id="Group_36" data-name="Group 36">
            <path id="Path_38" data-name="Path 38" d="M517.453,85.885c.178-.313.357-.626.535-.942.429-.754.857-1.505,1.286-2.259q.779-1.366,1.555-2.735c.447-.788.9-1.577,1.345-2.365.219-.385.451-.763.657-1.155l.009-.019c-.269.156-.541.31-.81.466H526.9a.939.939,0,0,0,0-1.877h-4.865a.939.939,0,0,0-.81.466c-.178.313-.357.626-.535.942-.429.754-.857,1.505-1.286,2.259q-.779,1.366-1.555,2.735c-.447.788-.9,1.577-1.345,2.365-.219.385-.444.767-.657,1.155l-.009.019a.938.938,0,1,0,1.621.945Z" transform="translate(-515.711 -75)" fill="#fff"/>
          </g>
        </g>
        <g id="Group_39" data-name="Group 39" transform="translate(4.14 9.467)">
          <g id="Group_38" data-name="Group 38">
            <path id="Path_39" data-name="Path 39" d="M265.966,377.86q-1.037,1.192-2.078,2.384-1.652,1.9-3.307,3.8l-.751.864h1.327q-1.037-1.192-2.078-2.384-1.652-1.9-3.3-3.8l-.751-.864c-.222.535-.441,1.067-.663,1.6h10.76c.494,0,.992.009,1.486,0h.022a.939.939,0,0,0,0-1.877h-10.76c-.494,0-.992-.016-1.486,0h-.022a.94.94,0,0,0-.857.576.958.958,0,0,0,.194,1.026q1.037,1.192,2.078,2.384,1.652,1.9,3.3,3.8l.751.864a.944.944,0,0,0,1.327,0q1.037-1.192,2.078-2.384,1.652-1.9,3.307-3.8l.751-.864a1,1,0,0,0,.275-.663.939.939,0,0,0-1.6-.663Z" transform="translate(-253.429 -377.578)" fill="#fff"/>
          </g>
        </g>
      </g>
    </g>
  </g>
</svg>
