<svg xmlns="http://www.w3.org/2000/svg" width="40.621" height="50.156" viewBox="0 0 40.621 50.156">
  <g id="Group_48" data-name="Group 48" transform="translate(-548.594 1337.934)">
    <g id="Group_43" data-name="Group 43" transform="translate(115.047)">
      <path id="Union_6" data-name="Union 6" d="M15.918,47.545a92.308,92.308,0,0,1-7.664-8.934A57.354,57.354,0,0,1,2.817,30.02,22.967,22.967,0,0,1,0,19.81,19.819,19.819,0,0,1,33.825,5.8a19.686,19.686,0,0,1,5.8,14.014A22.955,22.955,0,0,1,36.8,30.02a57.209,57.209,0,0,1-5.437,8.591A92.163,92.163,0,0,1,23.7,47.545a5.507,5.507,0,0,1-7.784,0Z" transform="translate(434.047 -1337.434)" fill="#383f48" stroke="rgba(0,0,0,0)" stroke-miterlimit="10" stroke-width="1"/>
    </g>
    <g id="Bus_icon" data-name="Bus icon" transform="translate(552.46 -1335.009)">
      <g id="Group_44" data-name="Group 44" transform="translate(5 6)">
        <g id="Path_43" data-name="Path 43" transform="translate(-5 -958.362)" fill="#fff">
          <path d="M 23.3104248046875 980.7916870117188 L 22.29317474365234 980.7916870117188 C 21.42423629760742 980.7916870117188 20.71730613708496 980.0847778320312 20.71730613708496 979.2158203125 L 20.71730613708496 977.7399291992188 L 12.17071533203125 977.7399291992188 L 12.17071533203125 979.2158203125 C 12.17071533203125 980.0847778320312 11.46378517150879 980.7916870117188 10.59485530853271 980.7916870117188 L 9.577605247497559 980.7916870117188 C 8.70866584777832 980.7916870117188 8.001735687255859 980.0847778320312 8.001735687255859 979.2158203125 L 8.001735687255859 977.7399291992188 L 7.54308557510376 977.7399291992188 C 7.235065460205078 977.7398071289062 6.984495639801025 977.4891967773438 6.984495639801025 977.1812744140625 L 6.984495639801025 968.3303833007812 L 6.017245292663574 968.3303833007812 C 5.438745498657227 968.3303833007812 4.950005531311035 967.8416137695312 4.950005531311035 967.2630615234375 L 4.950005531311035 963.7027587890625 C 4.950005531311035 963.124267578125 5.438745498657227 962.6355590820312 6.017245292663574 962.6355590820312 L 6.984495639801025 962.6355590820312 L 6.984495639801025 959.88818359375 C 6.984495639801025 959.0191650390625 7.691425323486328 958.3121948242188 8.560355186462402 958.3121948242188 L 24.32766532897949 958.3121948242188 C 25.19660568237305 958.3121948242188 25.90354537963867 959.0191650390625 25.90354537963867 959.88818359375 L 25.90354537963867 962.6355590820312 L 26.87078475952148 962.6355590820312 C 27.44929504394531 962.6355590820312 27.93803596496582 963.124267578125 27.93803596496582 963.7027587890625 L 27.93803596496582 967.2630615234375 C 27.93803596496582 967.8416137695312 27.44929504394531 968.3303833007812 26.87078475952148 968.3303833007812 L 25.90354537963867 968.3303833007812 L 25.90353584289551 977.181396484375 C 25.90348625183105 977.4893798828125 25.65288543701172 977.7399291992188 25.34491539001465 977.7399291992188 L 24.88629531860352 977.7399291992188 L 24.88629531860352 979.2158203125 C 24.88629531860352 980.0847778320312 24.17936515808105 980.7916870117188 23.3104248046875 980.7916870117188 Z M 21.83455467224121 977.7399291992188 L 21.83455467224121 979.2158203125 C 21.83455467224121 979.4772338867188 22.03171539306641 979.6743774414062 22.29317474365234 979.6743774414062 L 23.3104248046875 979.6743774414062 C 23.57188606262207 979.6743774414062 23.76904487609863 979.4772338867188 23.76904487609863 979.2158203125 L 23.76904487609863 977.7399291992188 L 21.83455467224121 977.7399291992188 Z M 9.118985176086426 977.7399291992188 L 9.118985176086426 979.2158203125 C 9.118985176086426 979.4772338867188 9.316145896911621 979.6743774414062 9.577605247497559 979.6743774414062 L 10.59485530853271 979.6743774414062 C 10.85631561279297 979.6743774414062 11.05347537994385 979.4772338867188 11.05347537994385 979.2158203125 L 11.05347537994385 977.7399291992188 L 9.118985176086426 977.7399291992188 Z M 8.10173511505127 976.6227416992188 L 24.78629493713379 976.6227416992188 L 24.78629493713379 970.1105346679688 L 8.10173511505127 970.1105346679688 L 8.10173511505127 976.6227416992188 Z M 17.00263595581055 968.9933471679688 L 24.78629493713379 968.9933471679688 L 24.78629493713379 961.9725952148438 L 17.00263595581055 961.9725952148438 L 17.00263595581055 968.9933471679688 Z M 8.10173511505127 968.9933471679688 L 15.88539505004883 968.9933471679688 L 15.88539505004883 961.9725952148438 L 8.10173511505127 961.9725952148438 L 8.10173511505127 968.9933471679688 Z M 25.90354537963867 967.2130737304688 L 26.82078552246094 967.2130737304688 L 26.82078552246094 963.7527465820312 L 25.90354537963867 963.7527465820312 L 25.90354537963867 967.2130737304688 Z M 6.067245483398438 967.2130737304688 L 6.984495639801025 967.2130737304688 L 6.984495639801025 963.7527465820312 L 6.067245483398438 963.7527465820312 L 6.067245483398438 967.2130737304688 Z M 8.10173511505127 960.8552856445312 L 24.78629493713379 960.8552856445312 L 24.78629493713379 959.88818359375 C 24.78629493713379 959.626708984375 24.58912467956543 959.4295043945312 24.32766532897949 959.4295043945312 L 8.560355186462402 959.4295043945312 C 8.298895835876465 959.4295043945312 8.10173511505127 959.626708984375 8.10173511505127 959.88818359375 L 8.10173511505127 960.8552856445312 Z M 18.98712539672852 975.9596557617188 L 13.90083503723145 975.9596557617188 C 13.59284591674805 975.9596557617188 13.34227561950684 975.7091064453125 13.34227561950684 975.401123046875 L 13.34227561950684 973.3665771484375 C 13.34234523773193 973.05859375 13.59294509887695 972.8080444335938 13.90090560913086 972.8080444335938 L 18.98717498779297 972.8080444335938 C 19.29517555236816 972.8080444335938 19.54575538635254 973.05859375 19.54575538635254 973.3665771484375 L 19.54575538635254 975.4012451171875 C 19.54567527770996 975.7091674804688 19.29507637023926 975.9596557617188 18.98712539672852 975.9596557617188 Z M 14.4595251083374 974.8424682617188 L 18.42850494384766 974.8424682617188 L 18.42850494384766 973.9252319335938 L 14.4595251083374 973.9252319335938 L 14.4595251083374 974.8424682617188 Z M 22.03886604309082 975.1968383789062 C 21.02970504760742 975.1968383789062 20.20868492126465 974.3757934570312 20.20868492126465 973.3665771484375 C 20.20868492126465 972.357421875 21.02970504760742 971.5364379882812 22.03886604309082 971.5364379882812 C 23.04802513122559 971.5364379882812 23.86904525756836 972.357421875 23.86904525756836 973.3665771484375 C 23.86904525756836 974.3757934570312 23.04802513122559 975.1968383789062 22.03886604309082 975.1968383789062 Z M 22.03886604309082 972.6537475585938 C 21.63909530639648 972.6537475585938 21.32593536376953 972.9668579101562 21.32593536376953 973.3665771484375 C 21.32593536376953 973.766357421875 21.63909530639648 974.0795288085938 22.03886604309082 974.0795288085938 C 22.43864631652832 974.0795288085938 22.75180625915527 973.766357421875 22.75180625915527 973.3665771484375 C 22.75180625915527 972.9668579101562 22.43864631652832 972.6537475585938 22.03886604309082 972.6537475585938 Z M 10.84916591644287 975.1968383789062 C 9.840005874633789 975.1968383789062 9.018985748291016 974.3757934570312 9.018985748291016 973.3665771484375 C 9.018985748291016 972.357421875 9.840005874633789 971.5364379882812 10.84916591644287 971.5364379882812 C 11.85832595825195 971.5364379882812 12.67934513092041 972.357421875 12.67934513092041 973.3665771484375 C 12.67934513092041 974.3757934570312 11.85832595825195 975.1968383789062 10.84916591644287 975.1968383789062 Z M 10.84916591644287 972.6537475585938 C 10.44938564300537 972.6537475585938 10.13622570037842 972.9668579101562 10.13622570037842 973.3665771484375 C 10.13622570037842 973.766357421875 10.44938564300537 974.0795288085938 10.84916591644287 974.0795288085938 C 11.24893569946289 974.0795288085938 11.56209564208984 973.766357421875 11.56209564208984 973.3665771484375 C 11.56209564208984 972.9668579101562 11.24893569946289 972.6537475585938 10.84916591644287 972.6537475585938 Z" stroke="none"/>
          <path d="M 8.560356140136719 958.3621826171875 C 7.723825454711914 958.3621826171875 7.03448486328125 959.0516357421875 7.03448486328125 959.88818359375 L 7.03448486328125 962.685546875 L 6.017246246337891 962.685546875 C 5.462486267089844 962.685546875 4.999996185302734 963.14794921875 4.999996185302734 963.7027587890625 L 4.999996185302734 967.2630615234375 C 4.999996185302734 967.81787109375 5.462486267089844 968.2803955078125 6.017246246337891 968.2803955078125 L 7.03448486328125 968.2803955078125 L 7.03448486328125 977.1812744140625 C 7.03448486328125 977.462158203125 7.262186050415039 977.6898193359375 7.543085098266602 977.68994140625 L 8.051734924316406 977.68994140625 L 8.051734924316406 979.2158203125 C 8.051734924316406 980.0523681640625 8.74107551574707 980.74169921875 9.577606201171875 980.74169921875 L 10.59485626220703 980.74169921875 C 11.4313850402832 980.74169921875 12.1207160949707 980.0523681640625 12.1207160949707 979.2158203125 L 12.1207160949707 977.68994140625 L 20.76730537414551 977.68994140625 L 20.76730537414551 979.2158203125 C 20.76730537414551 980.0523681640625 21.45664596557617 980.74169921875 22.29317474365234 980.74169921875 L 23.3104248046875 980.74169921875 C 24.1469554901123 980.74169921875 24.83629608154297 980.0523681640625 24.83629608154297 979.2158203125 L 24.83629608154297 977.68994140625 L 25.34491539001465 977.68994140625 C 25.62575531005859 977.68994140625 25.85348510742188 977.4622802734375 25.85353469848633 977.181396484375 L 25.85353469848633 968.2803955078125 L 26.87078475952148 968.2803955078125 C 27.42553520202637 968.2803955078125 27.88802528381348 967.81787109375 27.88802528381348 967.2630615234375 L 27.88802528381348 963.7027587890625 C 27.88802528381348 963.14794921875 27.42553520202637 962.685546875 26.87078475952148 962.685546875 L 25.85353469848633 962.685546875 L 25.85353469848633 959.88818359375 C 25.85353469848633 959.0516357421875 25.16420555114746 958.3621826171875 24.32766532897949 958.3621826171875 L 8.560356140136719 958.3621826171875 M 24.83629608154297 960.9052734375 L 8.051734924316406 960.9052734375 L 8.051734924316406 959.88818359375 C 8.051734924316406 959.5975341796875 8.269784927368164 959.3795166015625 8.560356140136719 959.3795166015625 L 24.32766532897949 959.3795166015625 C 24.61824417114258 959.3795166015625 24.83629608154297 959.5975341796875 24.83629608154297 959.88818359375 L 24.83629608154297 960.9052734375 M 15.93539619445801 969.0433349609375 L 8.051734924316406 969.0433349609375 L 8.051734924316406 961.922607421875 L 15.93539619445801 961.922607421875 L 15.93539619445801 969.0433349609375 M 24.83629608154297 969.0433349609375 L 16.95263671875 969.0433349609375 L 16.95263671875 961.922607421875 L 24.83629608154297 961.922607421875 L 24.83629608154297 969.0433349609375 M 7.03448486328125 967.2630615234375 L 6.017246246337891 967.2630615234375 L 6.017246246337891 963.7027587890625 L 7.03448486328125 963.7027587890625 L 7.03448486328125 967.2630615234375 M 26.87078475952148 967.2630615234375 L 25.85353469848633 967.2630615234375 L 25.85353469848633 963.7027587890625 L 26.87078475952148 963.7027587890625 L 26.87078475952148 967.2630615234375 M 24.83629608154297 976.6727294921875 L 8.051734924316406 976.6727294921875 L 8.051734924316406 970.060546875 L 24.83629608154297 970.060546875 L 24.83629608154297 976.6727294921875 M 10.59485626220703 979.724365234375 L 9.577606201171875 979.724365234375 C 9.287025451660156 979.724365234375 9.068984985351562 979.50634765625 9.068984985351562 979.2158203125 L 9.068984985351562 977.68994140625 L 11.10347557067871 977.68994140625 L 11.10347557067871 979.2158203125 C 11.10347557067871 979.50634765625 10.88542556762695 979.724365234375 10.59485626220703 979.724365234375 M 23.3104248046875 979.724365234375 L 22.29317474365234 979.724365234375 C 22.00260543823242 979.724365234375 21.78455543518066 979.50634765625 21.78455543518066 979.2158203125 L 21.78455543518066 977.68994140625 L 23.81904602050781 977.68994140625 L 23.81904602050781 979.2158203125 C 23.81904602050781 979.50634765625 23.60099411010742 979.724365234375 23.3104248046875 979.724365234375 M 10.84916496276855 971.58642578125 C 9.872026443481445 971.58642578125 9.068984985351562 972.389404296875 9.068984985351562 973.3665771484375 C 9.068984985351562 974.34375 9.872026443481445 975.1468505859375 10.84916496276855 975.1468505859375 C 11.8263053894043 975.1468505859375 12.62934494018555 974.34375 12.62934494018555 973.3665771484375 C 12.62934494018555 972.389404296875 11.8263053894043 971.58642578125 10.84916496276855 971.58642578125 M 10.84916496276855 974.1295166015625 C 10.42179489135742 974.1295166015625 10.08622550964355 973.7939453125 10.08622550964355 973.3665771484375 C 10.08622550964355 972.9393310546875 10.42179489135742 972.603759765625 10.84916496276855 972.603759765625 C 11.27653503417969 972.603759765625 11.61209487915039 972.9393310546875 11.61209487915039 973.3665771484375 C 11.61209487915039 973.7939453125 11.27653503417969 974.1295166015625 10.84916496276855 974.1295166015625 M 22.03886413574219 971.58642578125 C 21.06172561645508 971.58642578125 20.25868606567383 972.389404296875 20.25868606567383 973.3665771484375 C 20.25868606567383 974.34375 21.06172561645508 975.1468505859375 22.03886413574219 975.1468505859375 C 23.01600646972656 975.1468505859375 23.81904602050781 974.34375 23.81904602050781 973.3665771484375 C 23.81904602050781 972.389404296875 23.01600646972656 971.58642578125 22.03886413574219 971.58642578125 M 22.03886413574219 974.1295166015625 C 21.61149597167969 974.1295166015625 21.27593612670898 973.7939453125 21.27593612670898 973.3665771484375 C 21.27593612670898 972.9393310546875 21.61149597167969 972.603759765625 22.03886413574219 972.603759765625 C 22.46623611450195 972.603759765625 22.80180549621582 972.9393310546875 22.80180549621582 973.3665771484375 C 22.80180549621582 973.7939453125 22.46623611450195 974.1295166015625 22.03886413574219 974.1295166015625 M 13.90090560913086 972.8580322265625 C 13.62005615234375 972.8580322265625 13.39233589172363 973.085693359375 13.39227485656738 973.3665771484375 L 13.39227485656738 975.401123046875 C 13.39227485656738 975.681884765625 13.61995506286621 975.90966796875 13.90083503723145 975.90966796875 L 18.98712539672852 975.90966796875 C 19.26796531677246 975.90966796875 19.49568557739258 975.68212890625 19.49574661254883 975.4012451171875 L 19.49574661254883 973.3665771484375 C 19.49574661254883 973.085693359375 19.26806640625 972.8580322265625 18.98717498779297 972.8580322265625 L 13.90090560913086 972.8580322265625 M 18.4785041809082 974.8924560546875 L 14.40952491760254 974.8924560546875 L 14.40952491760254 973.875244140625 L 18.4785041809082 973.875244140625 L 18.4785041809082 974.8924560546875 M 8.560356140136719 958.26220703125 L 24.32766532897949 958.26220703125 C 25.22417449951172 958.26220703125 25.95353507995605 958.9915771484375 25.95353507995605 959.88818359375 L 25.95353507995605 962.5855712890625 L 26.87078475952148 962.5855712890625 C 27.47639465332031 962.5855712890625 27.9880256652832 963.09716796875 27.9880256652832 963.7027587890625 L 27.9880256652832 967.2630615234375 C 27.9880256652832 967.8687133789062 27.47639465332031 968.38037109375 26.87078475952148 968.38037109375 L 25.95353507995605 968.38037109375 L 25.95353507995605 977.181396484375 C 25.95347595214844 977.5169677734375 25.68044662475586 977.7899169921875 25.34491539001465 977.7899169921875 L 24.93629455566406 977.7899169921875 L 24.93629455566406 979.2158203125 C 24.93629455566406 980.1123046875 24.20693588256836 980.8416748046875 23.3104248046875 980.8416748046875 L 22.29317474365234 980.8416748046875 C 21.39666557312012 980.8416748046875 20.66730499267578 980.1123046875 20.66730499267578 979.2158203125 L 20.66730499267578 977.7899169921875 L 12.2207145690918 977.7899169921875 L 12.2207145690918 979.2158203125 C 12.2207145690918 980.1123046875 11.49135589599609 980.8416748046875 10.59485626220703 980.8416748046875 L 9.577606201171875 980.8416748046875 C 8.681095123291016 980.8416748046875 7.951736450195312 980.1123046875 7.951736450195312 979.2158203125 L 7.951736450195312 977.7899169921875 L 7.543085098266602 977.7899169921875 C 7.207485198974609 977.789794921875 6.934486389160156 977.5167236328125 6.934486389160156 977.1812744140625 L 6.934486389160156 968.38037109375 L 6.017246246337891 968.38037109375 C 5.411636352539062 968.38037109375 4.899995803833008 967.8687133789062 4.899995803833008 967.2630615234375 L 4.899995803833008 963.7027587890625 C 4.899995803833008 963.09716796875 5.411636352539062 962.5855712890625 6.017246246337891 962.5855712890625 L 6.934486389160156 962.5855712890625 L 6.934486389160156 959.88818359375 C 6.934486389160156 958.9915771484375 7.663845062255859 958.26220703125 8.560356140136719 958.26220703125 Z M 24.73629570007324 960.8052978515625 L 24.73629570007324 959.88818359375 C 24.73629570007324 959.6513671875 24.56444549560547 959.4794921875 24.32766532897949 959.4794921875 L 8.560356140136719 959.4794921875 C 8.323585510253906 959.4794921875 8.151735305786133 959.6513671875 8.151735305786133 959.88818359375 L 8.151735305786133 960.8052978515625 L 24.73629570007324 960.8052978515625 Z M 15.83539581298828 962.0225830078125 L 8.151735305786133 962.0225830078125 L 8.151735305786133 968.943359375 L 15.83539581298828 968.943359375 L 15.83539581298828 962.0225830078125 Z M 24.73629570007324 962.0225830078125 L 17.05263519287109 962.0225830078125 L 17.05263519287109 968.943359375 L 24.73629570007324 968.943359375 L 24.73629570007324 962.0225830078125 Z M 6.934486389160156 963.802734375 L 6.117244720458984 963.802734375 L 6.117244720458984 967.1630859375 L 6.934486389160156 967.1630859375 L 6.934486389160156 963.802734375 Z M 26.77078628540039 963.802734375 L 25.95353507995605 963.802734375 L 25.95353507995605 967.1630859375 L 26.77078628540039 967.1630859375 L 26.77078628540039 963.802734375 Z M 24.73629570007324 970.1605224609375 L 8.151735305786133 970.1605224609375 L 8.151735305786133 976.57275390625 L 24.73629570007324 976.57275390625 L 24.73629570007324 970.1605224609375 Z M 11.00347518920898 977.7899169921875 L 9.168985366821289 977.7899169921875 L 9.168985366821289 979.2158203125 C 9.168985366821289 979.4525146484375 9.340835571289062 979.6243896484375 9.577606201171875 979.6243896484375 L 10.59485626220703 979.6243896484375 C 10.83162498474121 979.6243896484375 11.00347518920898 979.4525146484375 11.00347518920898 979.2158203125 L 11.00347518920898 977.7899169921875 Z M 23.71904563903809 977.7899169921875 L 21.88455581665039 977.7899169921875 L 21.88455581665039 979.2158203125 C 21.88455581665039 979.4525146484375 22.05640411376953 979.6243896484375 22.29317474365234 979.6243896484375 L 23.3104248046875 979.6243896484375 C 23.54719543457031 979.6243896484375 23.71904563903809 979.4525146484375 23.71904563903809 979.2158203125 L 23.71904563903809 977.7899169921875 Z M 10.84916496276855 971.4864501953125 C 11.88589477539062 971.4864501953125 12.72934532165527 972.329833984375 12.72934532165527 973.3665771484375 C 12.72934532165527 974.4033813476562 11.88589477539062 975.246826171875 10.84916496276855 975.246826171875 C 9.812435150146484 975.246826171875 8.968984603881836 974.4033813476562 8.968984603881836 973.3665771484375 C 8.968984603881836 972.329833984375 9.812435150146484 971.4864501953125 10.84916496276855 971.4864501953125 Z M 10.84916496276855 974.029541015625 C 11.22090530395508 974.029541015625 11.5120964050293 973.7383422851562 11.5120964050293 973.3665771484375 C 11.5120964050293 972.9949340820312 11.22090530395508 972.7037353515625 10.84916496276855 972.7037353515625 C 10.47742462158203 972.7037353515625 10.18622589111328 972.9949340820312 10.18622589111328 973.3665771484375 C 10.18622589111328 973.7383422851562 10.47742462158203 974.029541015625 10.84916496276855 974.029541015625 Z M 22.03886413574219 971.4864501953125 C 23.07559585571289 971.4864501953125 23.91904449462891 972.329833984375 23.91904449462891 973.3665771484375 C 23.91904449462891 974.4033813476562 23.07559585571289 975.246826171875 22.03886413574219 975.246826171875 C 21.00213623046875 975.246826171875 20.1586856842041 974.4033813476562 20.1586856842041 973.3665771484375 C 20.1586856842041 972.329833984375 21.00213623046875 971.4864501953125 22.03886413574219 971.4864501953125 Z M 22.03886413574219 974.029541015625 C 22.41060638427734 974.029541015625 22.70180511474609 973.7383422851562 22.70180511474609 973.3665771484375 C 22.70180511474609 972.9949340820312 22.41060638427734 972.7037353515625 22.03886413574219 972.7037353515625 C 21.6671257019043 972.7037353515625 21.37593460083008 972.9949340820312 21.37593460083008 973.3665771484375 C 21.37593460083008 973.7383422851562 21.6671257019043 974.029541015625 22.03886413574219 974.029541015625 Z M 13.90090560913086 972.758056640625 L 18.98717498779297 972.758056640625 C 19.32274627685547 972.758056640625 19.59574508666992 973.031005859375 19.59574508666992 973.3665771484375 L 19.59574508666992 975.4012451171875 C 19.59567642211914 975.7367553710938 19.32264518737793 976.0096435546875 18.98712539672852 976.0096435546875 L 13.90083503723145 976.0096435546875 C 13.56527519226074 976.0096435546875 13.29227638244629 975.7366943359375 13.29227638244629 975.401123046875 L 13.29227638244629 973.3665771484375 C 13.29234504699707 973.031005859375 13.56537628173828 972.758056640625 13.90090560913086 972.758056640625 Z M 18.37850570678711 973.9752197265625 L 14.50952529907227 973.9752197265625 L 14.50952529907227 974.79248046875 L 18.37850570678711 974.79248046875 L 18.37850570678711 973.9752197265625 Z" stroke="none" fill="#fff"/>
        </g>
      </g>
    </g>
  </g>
</svg>
