<svg xmlns="http://www.w3.org/2000/svg" width="40.621" height="50.156" viewBox="0 0 40.621 50.156"><defs><style>.a{fill:#383f48;stroke:rgba(0,0,0,0);stroke-miterlimit:10;}.b{fill:none;stroke:#fff;stroke-linecap:round;stroke-linejoin:round;stroke-width:3px;}</style></defs><g transform="translate(-162.5 1337.934)"><path class="a" d="M15.918,47.545a92.308,92.308,0,0,1-7.664-8.934A57.354,57.354,0,0,1,2.817,30.02,22.967,22.967,0,0,1,0,19.81,19.819,19.819,0,0,1,33.825,5.8a19.686,19.686,0,0,1,5.8,14.014A22.955,22.955,0,0,1,36.8,30.02a57.209,57.209,0,0,1-5.437,8.591A92.163,92.163,0,0,1,23.7,47.545a5.507,5.507,0,0,1-7.784,0Z" transform="translate(163 -1337.434)"/><g transform="translate(170.729 -1329.289)"><rect class="b" width="20.164" height="13.442" rx="2" transform="translate(2 7.201)"/><path class="b" d="M16.013,21.173V5.019A2.011,2.011,0,0,0,14.01,3H10A2.011,2.011,0,0,0,8,5.019V21.173" transform="translate(0.01 -1.664)"/></g></g></svg>