<svg xmlns="http://www.w3.org/2000/svg" width="40.621" height="50.156" viewBox="0 0 40.621 50.156"><defs><style>.a{fill:#383f48;stroke:rgba(0,0,0,0);stroke-miterlimit:10;}.b,.c{fill:none;stroke-linejoin:round;}.b{stroke:#fff;stroke-width:3px;}.d,.e{stroke:none;}.e{fill:#fff;}</style></defs><g transform="translate(-76.5 1337.934)"><path class="a" d="M15.918,47.545a92.308,92.308,0,0,1-7.664-8.934A57.354,57.354,0,0,1,2.817,30.02,22.967,22.967,0,0,1,0,19.81,19.819,19.819,0,0,1,33.825,5.8a19.686,19.686,0,0,1,5.8,14.014A22.955,22.955,0,0,1,36.8,30.02a57.209,57.209,0,0,1-5.437,8.591A92.163,92.163,0,0,1,23.7,47.545a5.507,5.507,0,0,1-7.784,0Z" transform="translate(77 -1337.434)"/><g transform="translate(86.317 -1327.354)"><path class="b" d="M21.182,17H6.089" transform="translate(-2.33 -2.469)"/><g class="c"><path class="d" d="M6.089,2H17.367V18.708H6.089A2.089,2.089,0,0,1,4,16.62V4.089A2.089,2.089,0,0,1,6.089,2Z"/><path class="e" d="M 6.088530540466309 1.999996185302734 C 4.935070037841797 1.999996185302734 4.000001907348633 2.935066223144531 4.000001907348633 4.088535308837891 L 4.000001907348633 16.61971664428711 C 4.000001907348633 17.77318572998047 4.935070037841797 18.70825576782227 6.088530540466309 18.70825576782227 L 17.36660003662109 18.70825576782227 L 17.36660003662109 1.999996185302734 L 6.088530540466309 1.999996185302734 M 6.088530540466309 -1.000003814697266 L 17.36660003662109 -1.000003814697266 C 19.02345085144043 -1.000003814697266 20.36660003662109 0.3431453704833984 20.36660003662109 1.999996185302734 L 20.36660003662109 18.70825576782227 C 20.36660003662109 20.3651065826416 19.02345085144043 21.70825576782227 17.36660003662109 21.70825576782227 L 6.088530540466309 21.70825576782227 C 3.282711029052734 21.70825576782227 1.000001907348633 19.42554664611816 1.000001907348633 16.61971664428711 L 1.000001907348633 4.088535308837891 C 1.000001907348633 1.282705307006836 3.282711029052734 -1.000003814697266 6.088530540466309 -1.000003814697266 Z"/></g></g></g></svg>