<svg xmlns="http://www.w3.org/2000/svg" width="40.621" height="50.156" viewBox="0 0 40.621 50.156"><defs><style>.a{fill:#383f48;stroke:rgba(0,0,0,0);stroke-miterlimit:10;}.b{fill:none;stroke:#fff;stroke-linecap:round;stroke-linejoin:round;stroke-width:3px;}</style></defs><g transform="translate(-433.547 1337.934)"><path class="a" d="M15.918,47.545a92.308,92.308,0,0,1-7.664-8.934A57.354,57.354,0,0,1,2.817,30.02,22.967,22.967,0,0,1,0,19.81,19.819,19.819,0,0,1,33.825,5.8a19.686,19.686,0,0,1,5.8,14.014A22.955,22.955,0,0,1,36.8,30.02a57.209,57.209,0,0,1-5.437,8.591A92.163,92.163,0,0,1,23.7,47.545a5.507,5.507,0,0,1-7.784,0Z" transform="translate(434.047 -1337.434)"/><g transform="translate(441.246 -1330)"><path class="b" d="M17.889,21.333V19.222A4.222,4.222,0,0,0,13.667,15H5.222A4.222,4.222,0,0,0,1,19.222v2.111" transform="translate(0 0.667)"/><ellipse class="b" cx="4" cy="4.5" rx="4" ry="4.5" transform="translate(5 3)"/><path class="b" d="M23.167,21.326V19.215A4.222,4.222,0,0,0,20,15.13" transform="translate(1.056 0.674)"/><path class="b" d="M16,3.13a4.222,4.222,0,0,1,0,8.181" transform="translate(0.833 0.007)"/></g></g></svg>