<svg xmlns="http://www.w3.org/2000/svg" width="40.621" height="50.156" viewBox="0 0 40.621 50.156"><defs><style>.a{fill:#4B79E0;stroke:rgba(0,0,0,0);stroke-miterlimit:10;}.b{fill:none;stroke:#fff;stroke-linecap:round;stroke-linejoin:round;stroke-width:3px;}</style></defs><g transform="translate(-76.5 1569.934)"><g transform="translate(0 -232)"><path class="a" d="M15.918,47.545a92.308,92.308,0,0,1-7.664-8.934A57.354,57.354,0,0,1,2.817,30.02,22.967,22.967,0,0,1,0,19.81,19.819,19.819,0,0,1,33.825,5.8a19.686,19.686,0,0,1,5.8,14.014A22.955,22.955,0,0,1,36.8,30.02a57.209,57.209,0,0,1-5.437,8.591A92.163,92.163,0,0,1,23.7,47.545a5.507,5.507,0,0,1-7.784,0Z" transform="translate(77 -1337.434)"/></g><g transform="translate(82.633 -1564.024)"><path class="b" d="M25.356,13.147v1.028A11.178,11.178,0,1,1,18.727,3.959" transform="translate(0 0)"/><path class="b" d="M28.031,6,16.853,17.189,13.5,13.836" transform="translate(-2.675 -0.767)"/></g></g></svg>