<svg xmlns="http://www.w3.org/2000/svg" width="40.621" height="50.156" viewBox="0 0 40.621 50.156">
  <g id="Group_49" data-name="Group 49" transform="translate(-600.594 1337.934)">
    <g id="Group_45" data-name="Group 45" transform="translate(167.047)">
      <path id="Union_6" data-name="Union 6" d="M15.918,47.545a92.308,92.308,0,0,1-7.664-8.934A57.354,57.354,0,0,1,2.817,30.02,22.967,22.967,0,0,1,0,19.81,19.819,19.819,0,0,1,33.825,5.8a19.686,19.686,0,0,1,5.8,14.014A22.955,22.955,0,0,1,36.8,30.02a57.209,57.209,0,0,1-5.437,8.591A92.163,92.163,0,0,1,23.7,47.545a5.507,5.507,0,0,1-7.784,0Z" transform="translate(434.047 -1337.434)" fill="#383f48" stroke="rgba(0,0,0,0)" stroke-miterlimit="10" stroke-width="1"/>
    </g>
    <g id="park_icon" data-name="park icon" transform="translate(607.609 -1329.868)">
      <path id="Path_44" data-name="Path 44" d="M20.587,9.74a4.58,4.58,0,0,0,.454-1.994,4.634,4.634,0,0,0-3.3-4.445,4.641,4.641,0,0,0-8.887,0,4.635,4.635,0,0,0-3.3,4.445A4.588,4.588,0,0,0,6,9.739a5.42,5.42,0,0,0,3.419,9.627,5.4,5.4,0,0,0,3.1-.975v3.3H10.971a.775.775,0,0,0,0,1.549h4.648a.775.775,0,0,0,0-1.549H14.07v-3.3a5.419,5.419,0,0,0,8.521-4.447A5.457,5.457,0,0,0,20.587,9.74Zm-3.419,8.077a3.851,3.851,0,0,1-3.1-1.566V15.089l3.583-2.866a.775.775,0,1,0-.968-1.209L14.07,13.105V5.421a.775.775,0,1,0-1.549,0v4.586L9.906,7.916a.774.774,0,0,0-.967,1.209l3.582,2.865v4.26a3.865,3.865,0,0,1-6.971-2.308,3.9,3.9,0,0,1,1.88-3.319.774.774,0,0,0,.233-1.108A3.051,3.051,0,0,1,7.1,7.746,3.085,3.085,0,0,1,9.63,4.7a.773.773,0,0,0,.624-.621,3.093,3.093,0,0,1,6.084,0,.773.773,0,0,0,.623.622,3.083,3.083,0,0,1,1.968,4.81.774.774,0,0,0,.233,1.108,3.872,3.872,0,0,1-1.993,7.193Z" fill="#fff"/>
    </g>
  </g>
</svg>
