<svg xmlns="http://www.w3.org/2000/svg" width="40.621" height="50.156" viewBox="0 0 40.621 50.156"><defs><style>.a{fill:#383f48;stroke:rgba(0,0,0,0);stroke-miterlimit:10;}.b{fill:#fff;}</style></defs><g transform="translate(-742.173 1337.934)"><g transform="translate(93.047)"><g transform="translate(215.579)"><path class="a" d="M15.918,47.545a92.308,92.308,0,0,1-7.664-8.934A57.354,57.354,0,0,1,2.817,30.02,22.967,22.967,0,0,1,0,19.81,19.819,19.819,0,0,1,33.825,5.8a19.686,19.686,0,0,1,5.8,14.014A22.955,22.955,0,0,1,36.8,30.02a57.209,57.209,0,0,1-5.437,8.591A92.163,92.163,0,0,1,23.7,47.545a5.507,5.507,0,0,1-7.784,0Z" transform="translate(434.047 -1337.434)"/></g></g><g transform="translate(753.49 -1327.463)"><path class="b" d="M2.057,0a.705.705,0,0,0-.7.712h0V4.54A3.589,3.589,0,0,0,4.236,8.047v6.095H3.7a.324.324,0,0,0-.072,0,.7.7,0,0,0-.632.7v6.95a.7.7,0,0,0,.7.707H6.183a.7.7,0,0,0,.7-.7V14.843a.7.7,0,0,0-.7-.7H5.641V8.047A3.585,3.585,0,0,0,8.519,4.54V.717A.7.7,0,0,0,7.11.685V4.54A2.136,2.136,0,0,1,5.641,6.588V.717A.7.7,0,0,0,4.948,0H4.932a.707.707,0,0,0-.7.712V6.588A2.144,2.144,0,0,1,2.766,4.54V.717A.7.7,0,0,0,2.073,0ZM15.9,0a.768.768,0,0,0-.157.021L11.356,1.147a.7.7,0,0,0-.529.68V14.843a.7.7,0,0,0,.7.7h1.212v6.246a.7.7,0,0,0,.7.707h2.484a.7.7,0,0,0,.7-.7V.706a.707.707,0,0,0-.707-.7Zm-.685,1.61V14.142H12.233V2.372ZM4.4,15.547H5.482v5.547H4.4Zm9.74,0h1.073v5.547H14.143Z" transform="translate(0)"/></g></g></svg>