<svg xmlns="http://www.w3.org/2000/svg" width="40.621" height="50.156" viewBox="0 0 40.621 50.156">
  <g id="Group_50" data-name="Group 50" transform="translate(-649.126 1337.934)">
    <g id="Group_46" data-name="Group 46" transform="translate(215.579)">
      <path id="Union_6" data-name="Union 6" d="M15.918,47.545a92.308,92.308,0,0,1-7.664-8.934A57.354,57.354,0,0,1,2.817,30.02,22.967,22.967,0,0,1,0,19.81,19.819,19.819,0,0,1,33.825,5.8a19.686,19.686,0,0,1,5.8,14.014A22.955,22.955,0,0,1,36.8,30.02a57.209,57.209,0,0,1-5.437,8.591A92.163,92.163,0,0,1,23.7,47.545a5.507,5.507,0,0,1-7.784,0Z" transform="translate(434.047 -1337.434)" fill="#383f48" stroke="rgba(0,0,0,0)" stroke-miterlimit="10" stroke-width="1"/>
    </g>
    <g id="uni_icon" data-name="uni icon" transform="translate(653 -1336)">
      <rect id="Rectangle_18" data-name="Rectangle 18" width="33" height="33" fill="none"/>
      <path id="Path_45" data-name="Path 45" d="M21.851,19.178l-4.78,2.389a.9.9,0,0,1-.939,0l-12.6-6.3a1.092,1.092,0,0,1,0-1.878l12.6-6.3a.859.859,0,0,1,.567-.106,1.05,1.05,0,0,1,.372.106l12.6,6.3a1.1,1.1,0,0,1,0,1.878l-2.22,1.11v4.25a1.072,1.072,0,0,1-1.979.487.9.9,0,0,1-.12-.487v-3.2l-1.4.7v4.6a1.44,1.44,0,0,1-.83,1.111,11.833,11.833,0,0,1-9.951,1.493,14.329,14.329,0,0,1-3.4-1.7,1.494,1.494,0,0,1-.516-.906v-1.1a.906.906,0,0,1,.118-.483,1.09,1.09,0,0,1,1.79-.122.91.91,0,0,1,.191.606v.53a9.7,9.7,0,0,0,7.753,1.27,11.419,11.419,0,0,0,2.657-1.215l.089-.054v-2.98Zm4.371-4.528.641-.321L16.6,9.2,6.34,14.329,16.6,19.46,22.926,16.3l-6.473-.929a1.392,1.392,0,0,1-.564-.269,1.066,1.066,0,0,1,.736-1.82l.063,0,.064.007,9.471,1.36Z" transform="translate(0.138 0.322)" fill="#fff" fill-rule="evenodd"/>
    </g>
  </g>
</svg>
