<svg xmlns="http://www.w3.org/2000/svg" width="33.657" height="29.064" viewBox="0 0 33.657 29.064"><defs><style>.a{fill:none;stroke:#383f48;stroke-linecap:round;stroke-linejoin:round;stroke-width:3px;}</style></defs><g transform="translate(-25.885 377.14)"><path class="a" d="M29.026-375.64A1.641,1.641,0,0,0,27.385-374v14.528a1.641,1.641,0,0,0,2.789,1.173l2.326-2.276h15.74a1.641,1.641,0,0,0,1.641-1.641V-374a1.641,1.641,0,0,0-1.641-1.641Z" transform="translate(0)"/><line class="a" x2="11.223" transform="translate(33.022 -369.958)"/><line class="a" x2="7.598" transform="translate(33.022 -365.827)"/><path class="a" d="M139.319-251.385v1.959a1.641,1.641,0,0,0,1.641,1.641H156.7l2.326,2.276a1.641,1.641,0,0,0,2.789-1.173V-261.21a1.641,1.641,0,0,0-1.641-1.641h-1.944" transform="translate(-103.774 -104.579)"/></g></svg>