<svg xmlns="http://www.w3.org/2000/svg" width="26.793" height="33.724" viewBox="0 0 26.793 33.724"><defs><style>.a{fill:none;stroke-linejoin:round;}.b,.c{stroke:none;}.c{fill:#383f48;}</style></defs><g class="a" transform="translate(3 3)"><path class="b" d="M10.4,0A10.382,10.382,0,0,0,0,10.4c0,6.931,10.4,17.327,10.4,17.327s10.4-10.4,10.4-17.327A10.382,10.382,0,0,0,10.4,0Zm0,3.465A6.931,6.931,0,1,1,3.465,10.4,6.929,6.929,0,0,1,10.4,3.465Z"/><path class="c" d="M 10.39639091491699 -3.814697265625e-06 C 4.643720626831055 -3.814697265625e-06 0 4.643714904785156 0 10.39639472961426 C 0 17.32731628417969 10.39639091491699 27.72370529174805 10.39639091491699 27.72370529174805 C 10.39639091491699 27.72370529174805 20.79278182983398 17.32731628417969 20.79278182983398 10.39639472961426 C 20.79278182983398 4.643714904785156 16.14906120300293 -3.814697265625e-06 10.39639091491699 -3.814697265625e-06 M 10.39639091491699 17.32731628417969 C 6.584381103515625 17.32731628417969 3.465461730957031 14.24305534362793 3.465461730957031 10.39639472961426 C 3.465461730957031 6.584384918212891 6.584381103515625 3.465465545654297 10.39639091491699 3.465465545654297 C 14.24306106567383 3.465465545654297 17.32732009887695 6.584384918212891 17.32732009887695 10.39639472961426 C 17.32732009887695 14.24305534362793 14.24306106567383 17.32731628417969 10.39639091491699 17.32731628417969 M 10.39639091491699 -3.000003814697266 C 13.97997093200684 -3.000003814697266 17.34555053710938 -1.60798454284668 19.87316131591797 0.9196262359619141 C 22.40076065063477 3.447225570678711 23.79278182983398 6.812814712524414 23.79278182983398 10.39639472961426 C 23.79278182983398 12.47612571716309 23.15782165527344 14.75701522827148 21.85163116455078 17.36941528320312 C 20.90903091430664 19.25459671020508 19.61134147644043 21.30347442626953 17.99458122253418 23.45914459228516 C 15.29856109619141 27.05383491516113 12.62999057769775 29.73274612426758 12.51771068572998 29.84502601623535 C 11.93192577362061 30.43081092834473 11.16415882110596 30.72370338439941 10.39639091491699 30.72370338439941 C 9.628623008728027 30.72370338439941 8.860856056213379 30.43081092834473 8.275071144104004 29.84502601623535 C 8.16279125213623 29.73274612426758 5.494220733642578 27.05383491516113 2.798200607299805 23.45914459228516 C 1.181440353393555 21.30347442626953 -0.1162490844726562 19.25459671020508 -1.058849334716797 17.36941528320312 C -2.365039825439453 14.75701522827148 -3 12.47612571716309 -3 10.39639472961426 C -3 6.812814712524414 -1.607978820800781 3.447225570678711 0.9196205139160156 0.9196262359619141 C 3.447231292724609 -1.60798454284668 6.812810897827148 -3.000003814697266 10.39639091491699 -3.000003814697266 Z M 10.39639091491699 14.32731533050537 C 11.45548057556152 14.32731533050537 12.44513130187988 13.92093563079834 13.18304061889648 13.1830358505249 C 13.92094039916992 12.44512557983398 14.32732105255127 11.45548629760742 14.32732105255127 10.39639472961426 C 14.32732105255127 8.228876113891602 12.56391048431396 6.465465545654297 10.39639091491699 6.465465545654297 C 9.354061126708984 6.465465545654297 8.369030952453613 6.87646484375 7.622740745544434 7.622745513916016 C 6.876461029052734 8.369035720825195 6.465460777282715 9.35406494140625 6.465460777282715 10.39639472961426 C 6.465460777282715 12.56391525268555 8.22887134552002 14.32731533050537 10.39639091491699 14.32731533050537 Z"/></g></svg>