<svg xmlns="http://www.w3.org/2000/svg" viewBox="0 0 12 12"><defs><style>.cls-1{fill:#4b79e0;}.cls-2{fill:#fff;}</style></defs><g id="Ebene_2" data-name="Ebene 2"><g id="Ebene_1-2" data-name="Ebene 1"><circle class="cls-1" cx="6" cy="6" r="6"/><g id="Group_42" data-name="Group 42"><path id="Union_6" data-name="Union 6" class="cls-2" d="M7.88,2.55A2.66,2.66,0,0,0,3.34,4.43a3,3,0,0,0,.38,1.38A7,7,0,0,0,4.45,7a11.66,11.66,0,0,0,1,1.2.73.73,0,0,0,1,0,11.66,11.66,0,0,0,1-1.2,7,7,0,0,0,.73-1.15,3,3,0,0,0,.38-1.38A2.58,2.58,0,0,0,7.88,2.55ZM5.62,4.05a.54.54,0,0,1,.76,0,.55.55,0,0,1,0,.77.54.54,0,0,1-.76,0,.53.53,0,0,1-.16-.39A.55.55,0,0,1,5.62,4.05Z"/></g><rect class="cls-2" x="4.83" y="9.06" width="2.34" height="1.17" rx="0.22"/></g></g></svg>