<?xml version="1.0" encoding="utf-8"?>
<!-- Generator: Adobe Illustrator 24.3.0, SVG Export Plug-In . SVG Version: 6.00 Build 0)  -->
<svg version="1.1" id="e937dd5c-1a88-46eb-b274-68931cd56025"
	 xmlns="http://www.w3.org/2000/svg" xmlns:xlink="http://www.w3.org/1999/xlink" x="0px" y="0px" viewBox="0 0 923.8 753.7"
	 style="enable-background:new 0 0 923.8 753.7;" xml:space="preserve">
<style type="text/css">
	.st0{opacity:0.1;fill:#6C63FF;enable-background:new    ;}
	.st1{fill:#383F48;}
	.st2{fill:#3F3D56;}
	.st3{fill:#6C63FF;}
	.st4{opacity:0.1;enable-background:new    ;}
	.st5{fill:#778699;}
	.st6{fill:#EBEFF5;}
	.st7{opacity:0.3;}
	.st8{fill:none;stroke:#778699;stroke-width:3;stroke-miterlimit:10;}
	.st9{fill:#4B79E0;}
	.st10{fill:#E03A7A;}
</style>
<ellipse transform="matrix(0.7071 -0.7071 0.7071 0.7071 -252.1185 824.496)" class="st0" cx="869.2" cy="716.6" rx="20" ry="48.5"/>
<ellipse class="st1" cx="872.6" cy="705.7" rx="10.7" ry="14"/>
<ellipse class="st1" cx="872.6" cy="688.5" rx="10.7" ry="14"/>
<ellipse class="st1" cx="872.6" cy="671.4" rx="10.7" ry="14"/>
<ellipse class="st1" cx="872.6" cy="654.2" rx="10.7" ry="14"/>
<ellipse class="st1" cx="872.6" cy="637" rx="10.7" ry="14"/>
<ellipse class="st2" cx="872.6" cy="619.8" rx="10.7" ry="14"/>
<ellipse class="st2" cx="872.6" cy="602.7" rx="10.7" ry="14"/>
<path class="st3" d="M912.8,485.2c1.5-1.9,2.8-3.8,4-5.9l-28.2-4.6l30.5,0.2c5.9-12.9,6.3-27.6,1-40.7l-40.9,21.2l37.7-27.7
	c-14.2-24.6-45.6-33-70.2-18.8c-24.6,14.2-33,45.6-18.8,70.2c1.2,2.1,2.6,4.2,4.1,6.1c-2.3,2.9-4.3,6-5.9,9.4l36.6,19l-39-13.1
	c-5.6,16.5-2.4,34.6,8.3,48.3c-17.6,22.3-13.7,54.6,8.6,72.2c22.3,17.6,54.6,13.7,72.2-8.6c14.7-18.6,14.7-44.9,0-63.6
	C927.5,530.1,927.5,503.8,912.8,485.2L912.8,485.2z"/>
<path class="st4" d="M821,517c0,11.5,3.9,22.7,11,31.8c-17.6,22.3-13.7,54.6,8.6,72.2c22.3,17.6,54.6,13.7,72.2-8.6
	c14.7-18.6,14.7-44.9,0-63.6C919.7,540,821,511.2,821,517z"/>
<path class="st5" d="M847,12.5v695.8c0,6.2-5.5,10.9-11.6,10.1l-230.7-32.1c-1.1-0.2-2.3-0.1-3.4,0.1l-294.9,60.2l0,0
	c-1.6,0.3-3.2,0.3-4.7-0.2L75.4,684.1c-4.4-1.2-7.5-5.2-7.5-9.8V64.1c0-4.7,3.3-8.9,7.9-9.9L310.8,0.5c1.4-0.3,2.9-0.3,4.3,0
	l263.7,55.1c1.4,0.3,2.8,0.3,4.2,0l8.1-1.7L834.7,2.6C841,1.3,847,6.1,847,12.5z"/>
<path class="st6" d="M806,54.1V659c0,13-11.5,22.9-24.3,21.2l-184.6-25.7c-6.2-0.9-12.6-0.7-18.8,0.6l-256.1,52.2l-2.1,0.4
	L120,652.6c-6.5-1.8-11-7.7-11-14.4V104.1c0-8.6,5.9-16,14.3-17.9l170.5-39c22.7-5.2,46.2-5.4,69-0.6L568,89.4l9.1-1.9l214.4-45.1
	C799,40.8,806,46.5,806,54.1z"/>
<polygon class="st4" points="603,686 306.4,746.5 313,0 581,56 591.2,53.8 "/>
<g class="st7">
	<polyline class="st8" points="573.3,138 573.5,347.5 660.5,347.5 660.5,261.5 809.5,261.5 827,239.1 	"/>
	<polyline class="st8" points="89,204.5 412.5,204.5 432.5,195.5 440.5,195.5 440.5,397.5 580.5,397.5 586.5,415.5 586.5,506.5 
		694.5,506.5 694.5,619 	"/>
	<line class="st8" x1="483.2" y1="619" x2="483.2" y2="397.5"/>
	<line class="st8" x1="827" y1="559.7" x2="483.2" y2="559.7"/>
	<line class="st8" x1="740.9" y1="138" x2="740.9" y2="619"/>
	<line class="st8" x1="88" y1="517.1" x2="827" y2="517.1"/>
	<line class="st8" x1="177.9" y1="619" x2="177.9" y2="138"/>
	<line class="st8" x1="349.7" y1="138" x2="349.7" y2="619"/>
	<line class="st8" x1="89" y1="259.5" x2="660.5" y2="261.5"/>
	<line class="st8" x1="255.3" y1="138.9" x2="255.3" y2="619"/>
	<polyline class="st8" points="88,370.8 349.7,370.8 483.2,517.1 	"/>
	<line class="st8" x1="512.1" y1="138" x2="512.1" y2="397.5"/>
	<line class="st8" x1="483.2" y1="444" x2="827" y2="444"/>
</g>
<ellipse transform="matrix(0.9184 -0.3955 0.3955 0.9184 -248.3628 262.2462)" class="st0" cx="511.8" cy="733.4" rx="33.5" ry="13.8"/>
<ellipse class="st1" cx="511.4" cy="728" rx="7.4" ry="9.7"/>
<ellipse class="st1" cx="511.4" cy="716.1" rx="7.4" ry="9.7"/>
<ellipse class="st1" cx="511.4" cy="704.3" rx="7.4" ry="9.7"/>
<ellipse class="st1" cx="511.4" cy="692.5" rx="7.4" ry="9.7"/>
<ellipse class="st1" cx="511.4" cy="680.6" rx="7.4" ry="9.7"/>
<ellipse class="st2" cx="511.4" cy="668.8" rx="7.4" ry="9.7"/>
<ellipse class="st2" cx="511.4" cy="657" rx="7.4" ry="9.7"/>
<path class="st9" d="M483.7,576c-1-1.3-1.9-2.6-2.8-4l19.4-3.2l-21,0.2c-4.1-8.9-4.3-19-0.7-28.1l28.2,14.6l-26-19.1
	c9.8-16.9,31.5-22.7,48.4-12.9c16.9,9.8,22.7,31.5,12.9,48.4c-0.8,1.5-1.8,2.9-2.8,4.2c1.6,2,2.9,4.2,4,6.5l-25.2,13.1l26.9-9
	c3.8,11.3,1.7,23.9-5.7,33.3c12.1,15.4,9.4,37.7-5.9,49.8c-15.4,12.1-37.7,9.4-49.8-5.9c-10.1-12.9-10.1-31,0-43.8
	C473.6,607,473.6,588.9,483.7,576L483.7,576z"/>
<path class="st4" d="M547,597.8c0,7.9-2.7,15.7-7.6,21.9c12.1,15.4,9.4,37.7-5.9,49.8c-15.4,12.1-37.7,9.4-49.8-5.9
	c-10.1-12.9-10.1-31,0-43.8C478.9,613.8,547,593.9,547,597.8z"/>
<ellipse transform="matrix(0.7071 -0.7071 0.7071 0.7071 -477.0266 237.5161)" class="st0" cx="48.2" cy="694.6" rx="20" ry="48.5"/>
<ellipse class="st1" cx="51.6" cy="683.7" rx="10.7" ry="14"/>
<ellipse class="st1" cx="51.6" cy="666.5" rx="10.7" ry="14"/>
<ellipse class="st1" cx="51.6" cy="649.4" rx="10.7" ry="14"/>
<ellipse class="st1" cx="51.6" cy="632.2" rx="10.7" ry="14"/>
<ellipse class="st1" cx="51.6" cy="615" rx="10.7" ry="14"/>
<ellipse class="st2" cx="51.6" cy="597.8" rx="10.7" ry="14"/>
<ellipse class="st2" cx="51.6" cy="580.7" rx="10.7" ry="14"/>
<path class="st9" d="M91.8,463.2c1.5-1.9,2.8-3.8,4-5.9l-28.2-4.6l30.5,0.2c5.9-12.9,6.3-27.6,1-40.7l-40.9,21.2l37.7-27.7
	c-14.2-24.6-45.6-33-70.2-18.8s-33,45.6-18.8,70.2c1.2,2.1,2.6,4.2,4.1,6.1c-2.3,2.9-4.3,6-5.9,9.4l36.6,19l-39-13.1
	c-5.6,16.5-2.4,34.6,8.3,48.3c-17.6,22.3-13.7,54.6,8.6,72.2c22.3,17.6,54.6,13.7,72.2-8.6c14.7-18.6,14.7-44.9,0-63.6
	C106.5,508.1,106.5,481.8,91.8,463.2L91.8,463.2z"/>
<path class="st4" d="M0,495c0,11.5,3.9,22.7,11,31.8c-17.6,22.3-13.7,54.6,8.6,72.2c22.3,17.6,54.6,13.7,72.2-8.6
	c14.7-18.6,14.7-44.9,0-63.6C98.7,518,0,489.2,0,495z"/>
<g id="Group_42" transform="translate(-433.547 1337.934)">
	<path id="Union_6" class="st9" d="M1149.3-1166.3c-13.8-13.8-36.1-13.8-49.8,0c-6.6,6.6-10.3,15.6-10.3,24.9
		c0.2,6.4,1.9,12.6,5,18.2c2.8,5.4,6,10.5,9.7,15.3c4.2,5.6,8.8,10.9,13.6,15.9c3.8,3.8,10,3.8,13.8,0c4.9-5,9.4-10.3,13.6-15.9
		c3.7-4.8,6.9-9.9,9.7-15.3c3.1-5.6,4.8-11.8,5-18.2C1159.6-1150.7,1155.9-1159.7,1149.3-1166.3z M1119.3-1146.5
		c2.8-2.8,7.3-2.8,10.1,0c2.8,2.8,2.8,7.3,0,10.1c-2.8,2.8-7.3,2.8-10.1,0c-1.3-1.3-2.1-3.2-2.1-5.1
		C1117.2-1143.3,1117.9-1145.1,1119.3-1146.5z"/>
</g>
<g id="Group_42_1_" transform="translate(-433.547 1337.934)">
	<path id="Union_6_1_" class="st9" d="M657.7-904.6c-13.8-13.8-36.1-13.8-49.8,0c-6.6,6.6-10.3,15.6-10.3,24.9
		c0.2,6.4,1.9,12.6,5,18.2c2.8,5.4,6,10.5,9.7,15.3c4.2,5.6,8.8,10.9,13.6,15.9c3.8,3.8,10,3.8,13.8,0c4.9-5,9.4-10.3,13.6-15.9
		c3.7-4.8,6.9-9.9,9.7-15.3c3.1-5.6,4.8-11.8,5-18.2C668.1-889,664.4-898,657.7-904.6z M627.7-884.7c2.8-2.8,7.3-2.8,10.1,0
		c2.8,2.8,2.8,7.3,0,10.1c-2.8,2.8-7.3,2.8-10.1,0c-1.3-1.3-2.1-3.2-2.1-5.1C625.6-881.6,626.4-883.4,627.7-884.7z"/>
</g>
<g id="Group_42_2_" transform="translate(-433.547 1337.934)">
	<path id="Union_6_2_" class="st10" d="M939-1088.1c-24.7-24.7-64.8-24.7-89.5,0c-11.9,11.9-18.6,28-18.5,44.8
		c0.4,11.4,3.5,22.6,9,32.6c5,9.6,10.8,18.8,17.4,27.4c7.5,10,15.7,19.6,24.5,28.5c6.9,6.9,18,6.9,24.9,0c8.8-9,16.9-18.5,24.5-28.5
		c6.6-8.6,12.4-17.8,17.3-27.4c5.5-10,8.6-21.2,9-32.6C957.6-1060.2,950.9-1076.3,939-1088.1z M885.2-1052.5c5-5,13.2-5,18.2,0.1
		c5,5,5,13.2-0.1,18.2c-5,5-13.2,5-18.2-0.1c-2.4-2.4-3.7-5.7-3.7-9.1C881.4-1046.8,882.8-1050.1,885.2-1052.5z"/>
</g>
</svg>
