<svg version="1.1" id="e937dd5c-1a88-46eb-b274-68931cd56025" xmlns="http://www.w3.org/2000/svg" x="0" y="0" viewBox="0 0 923.8 753.7" xml:space="preserve"><style>.st0{opacity:.1;fill:#6c63ff;enable-background:new}.st1{fill:#383f48}.st2{fill:#3f3d56}.st4{opacity:.1;enable-background:new}.st8{fill:none;stroke:#778699;stroke-width:3;stroke-miterlimit:10}.st9{fill:#4b79e0}</style><ellipse transform="rotate(-45.001 869.191 716.595)" class="st0" cx="869.2" cy="716.6" rx="20" ry="48.5"/><ellipse class="st1" cx="872.6" cy="705.7" rx="10.7" ry="14"/><ellipse class="st1" cx="872.6" cy="688.5" rx="10.7" ry="14"/><ellipse class="st1" cx="872.6" cy="671.4" rx="10.7" ry="14"/><ellipse class="st1" cx="872.6" cy="654.2" rx="10.7" ry="14"/><ellipse class="st1" cx="872.6" cy="637" rx="10.7" ry="14"/><ellipse class="st2" cx="872.6" cy="619.8" rx="10.7" ry="14"/><ellipse class="st2" cx="872.6" cy="602.7" rx="10.7" ry="14"/><path d="M912.8 485.2c1.5-1.9 2.8-3.8 4-5.9l-28.2-4.6 30.5.2c5.9-12.9 6.3-27.6 1-40.7l-40.9 21.2 37.7-27.7c-14.2-24.6-45.6-33-70.2-18.8s-33 45.6-18.8 70.2c1.2 2.1 2.6 4.2 4.1 6.1-2.3 2.9-4.3 6-5.9 9.4l36.6 19-39-13.1c-5.6 16.5-2.4 34.6 8.3 48.3-17.6 22.3-13.7 54.6 8.6 72.2 22.3 17.6 54.6 13.7 72.2-8.6 14.7-18.6 14.7-44.9 0-63.6 14.7-18.7 14.7-45 0-63.6z" fill="#6c63ff"/><path class="st4" d="M821 517c0 11.5 3.9 22.7 11 31.8-17.6 22.3-13.7 54.6 8.6 72.2 22.3 17.6 54.6 13.7 72.2-8.6 14.7-18.6 14.7-44.9 0-63.6 6.9-8.8-91.8-37.6-91.8-31.8z"/><path d="M847 12.5v695.8c0 6.2-5.5 10.9-11.6 10.1l-230.7-32.1c-1.1-.2-2.3-.1-3.4.1l-294.9 60.2c-1.6.3-3.2.3-4.7-.2L75.4 684.1c-4.4-1.2-7.5-5.2-7.5-9.8V64.1c0-4.7 3.3-8.9 7.9-9.9L310.8.5c1.4-.3 2.9-.3 4.3 0l263.7 55.1c1.4.3 2.8.3 4.2 0l8.1-1.7L834.7 2.6C841 1.3 847 6.1 847 12.5z" fill="#778699"/><path d="M806 54.1V659c0 13-11.5 22.9-24.3 21.2l-184.6-25.7c-6.2-.9-12.6-.7-18.8.6l-256.1 52.2-2.1.4L120 652.6c-6.5-1.8-11-7.7-11-14.4V104.1c0-8.6 5.9-16 14.3-17.9l170.5-39c22.7-5.2 46.2-5.4 69-.6L568 89.4l9.1-1.9 214.4-45.1c7.5-1.6 14.5 4.1 14.5 11.7z" fill="#ebeff5"/><path class="st4" d="M603 686l-296.6 60.5L313 0l268 56 10.2-2.2z"/><g opacity=".3"><path class="st8" d="M573.3 138l.2 209.5h87v-86h149l17.5-22.4M89 204.5h323.5l20-9h8v202h140l6 18v91h108V619M483.2 619V397.5M827 559.7H483.2M740.9 138v481M88 517.1h739M177.9 619V138M349.7 138v481M89 259.5l571.5 2M255.3 138.9V619"/><path class="st8" d="M88 370.8h261.7l133.5 146.3M512.1 138v259.5M483.2 444H827"/></g><ellipse transform="rotate(-23.299 511.851 733.499)" class="st0" cx="511.8" cy="733.4" rx="33.5" ry="13.8"/><ellipse class="st1" cx="511.4" cy="728" rx="7.4" ry="9.7"/><ellipse class="st1" cx="511.4" cy="716.1" rx="7.4" ry="9.7"/><ellipse class="st1" cx="511.4" cy="704.3" rx="7.4" ry="9.7"/><ellipse class="st1" cx="511.4" cy="692.5" rx="7.4" ry="9.7"/><ellipse class="st1" cx="511.4" cy="680.6" rx="7.4" ry="9.7"/><ellipse class="st2" cx="511.4" cy="668.8" rx="7.4" ry="9.7"/><ellipse class="st2" cx="511.4" cy="657" rx="7.4" ry="9.7"/><path class="st9" d="M483.7 576c-1-1.3-1.9-2.6-2.8-4l19.4-3.2-21 .2c-4.1-8.9-4.3-19-.7-28.1l28.2 14.6-26-19.1c9.8-16.9 31.5-22.7 48.4-12.9 16.9 9.8 22.7 31.5 12.9 48.4-.8 1.5-1.8 2.9-2.8 4.2 1.6 2 2.9 4.2 4 6.5l-25.2 13.1 26.9-9c3.8 11.3 1.7 23.9-5.7 33.3 12.1 15.4 9.4 37.7-5.9 49.8-15.4 12.1-37.7 9.4-49.8-5.9-10.1-12.9-10.1-31 0-43.8-10-13.1-10-31.2.1-44.1z"/><path class="st4" d="M547 597.8c0 7.9-2.7 15.7-7.6 21.9 12.1 15.4 9.4 37.7-5.9 49.8-15.4 12.1-37.7 9.4-49.8-5.9-10.1-12.9-10.1-31 0-43.8-4.8-6 63.3-25.9 63.3-22z"/><ellipse transform="rotate(-45.001 48.186 694.584)" class="st0" cx="48.2" cy="694.6" rx="20" ry="48.5"/><ellipse class="st1" cx="51.6" cy="683.7" rx="10.7" ry="14"/><ellipse class="st1" cx="51.6" cy="666.5" rx="10.7" ry="14"/><ellipse class="st1" cx="51.6" cy="649.4" rx="10.7" ry="14"/><ellipse class="st1" cx="51.6" cy="632.2" rx="10.7" ry="14"/><ellipse class="st1" cx="51.6" cy="615" rx="10.7" ry="14"/><ellipse class="st2" cx="51.6" cy="597.8" rx="10.7" ry="14"/><ellipse class="st2" cx="51.6" cy="580.7" rx="10.7" ry="14"/><path class="st9" d="M91.8 463.2c1.5-1.9 2.8-3.8 4-5.9l-28.2-4.6 30.5.2c5.9-12.9 6.3-27.6 1-40.7l-40.9 21.2 37.7-27.7c-14.2-24.6-45.6-33-70.2-18.8s-33 45.6-18.8 70.2c1.2 2.1 2.6 4.2 4.1 6.1-2.3 2.9-4.3 6-5.9 9.4l36.6 19-39-13.1C-2.9 495 .3 513.1 11 526.8c-17.6 22.3-13.7 54.6 8.6 72.2 22.3 17.6 54.6 13.7 72.2-8.6 14.7-18.6 14.7-44.9 0-63.6 14.7-18.7 14.7-45 0-63.6z"/><path class="st4" d="M0 495c0 11.5 3.9 22.7 11 31.8-17.6 22.3-13.7 54.6 8.6 72.2 22.3 17.6 54.6 13.7 72.2-8.6 14.7-18.6 14.7-44.9 0-63.6C98.7 518 0 489.2 0 495z"/><g id="Group_42" transform="translate(-433.547 1337.934)"><path id="Union_6" class="st9" d="M1149.3-1166.3c-13.8-13.8-36.1-13.8-49.8 0-6.6 6.6-10.3 15.6-10.3 24.9.2 6.4 1.9 12.6 5 18.2 2.8 5.4 6 10.5 9.7 15.3 4.2 5.6 8.8 10.9 13.6 15.9 3.8 3.8 10 3.8 13.8 0 4.9-5 9.4-10.3 13.6-15.9 3.7-4.8 6.9-9.9 9.7-15.3 3.1-5.6 4.8-11.8 5-18.2 0-9.3-3.7-18.3-10.3-24.9zm-30 19.8c2.8-2.8 7.3-2.8 10.1 0s2.8 7.3 0 10.1-7.3 2.8-10.1 0c-1.3-1.3-2.1-3.2-2.1-5.1 0-1.8.7-3.6 2.1-5z"/></g><g id="Group_42_1_" transform="translate(-433.547 1337.934)"><path id="Union_6_1_" class="st9" d="M657.7-904.6c-13.8-13.8-36.1-13.8-49.8 0-6.6 6.6-10.3 15.6-10.3 24.9.2 6.4 1.9 12.6 5 18.2 2.8 5.4 6 10.5 9.7 15.3 4.2 5.6 8.8 10.9 13.6 15.9 3.8 3.8 10 3.8 13.8 0 4.9-5 9.4-10.3 13.6-15.9 3.7-4.8 6.9-9.9 9.7-15.3 3.1-5.6 4.8-11.8 5-18.2.1-9.3-3.6-18.3-10.3-24.9zm-30 19.9c2.8-2.8 7.3-2.8 10.1 0s2.8 7.3 0 10.1-7.3 2.8-10.1 0c-1.3-1.3-2.1-3.2-2.1-5.1 0-1.9.8-3.7 2.1-5z"/></g><g id="Group_42_2_" transform="translate(-433.547 1337.934)"><path id="Union_6_2_" d="M939-1088.1c-24.7-24.7-64.8-24.7-89.5 0-11.9 11.9-18.6 28-18.5 44.8.4 11.4 3.5 22.6 9 32.6 5 9.6 10.8 18.8 17.4 27.4 7.5 10 15.7 19.6 24.5 28.5 6.9 6.9 18 6.9 24.9 0 8.8-9 16.9-18.5 24.5-28.5 6.6-8.6 12.4-17.8 17.3-27.4 5.5-10 8.6-21.2 9-32.6 0-16.9-6.7-33-18.6-44.8zm-53.8 35.6c5-5 13.2-5 18.2.1 5 5 5 13.2-.1 18.2-5 5-13.2 5-18.2-.1-2.4-2.4-3.7-5.7-3.7-9.1 0-3.4 1.4-6.7 3.8-9.1z" fill="#e03a7a"/></g></svg>