<svg xmlns="http://www.w3.org/2000/svg" width="40.621" height="50.157" viewBox="0 0 40.621 50.157">
  <g id="Group_42" data-name="Group 42" transform="translate(-433.547 1337.934)">
    <path id="Union_6" data-name="Union 6" d="M33.825,5.8A19.811,19.811,0,0,0,0,19.81,22.979,22.979,0,0,0,2.817,30.02a57.413,57.413,0,0,0,5.437,8.591,92.362,92.362,0,0,0,7.665,8.935,5.506,5.506,0,0,0,7.784,0,92.136,92.136,0,0,0,7.665-8.935A57.3,57.3,0,0,0,36.8,30.02a22.959,22.959,0,0,0,2.817-10.21A19.688,19.688,0,0,0,33.825,5.8ZM16.967,16.965a4.022,4.022,0,1,1-1.189,2.844A4,4,0,0,1,16.967,16.965Z" transform="translate(434.047 -1337.434)" fill="#383f48" stroke="rgba(0,0,0,0)" stroke-miterlimit="10" stroke-width="1"/>
  </g>
</svg>
